<svg width="1204" height="109" viewBox="0 0 1204 109" fill="none" xmlns="http://www.w3.org/2000/svg">
<path d="M1155.98 3.57861C1171.22 3.57862 1182.81 5.85822 1190.62 10.5269C1198.52 15.2439 1202.49 22.3627 1202.49 31.73V33.3989C1202.49 39.1473 1200.79 44.048 1197.38 48.0581C1194.48 51.4667 1190.38 54.1801 1185.17 56.2456C1189.97 57.9828 1194.03 60.5393 1197.22 64.1187H1197.22C1201.06 68.2808 1202.94 73.6968 1202.94 80.269V109.938H1168.03V90.2808C1168.03 84.0636 1166.4 79.7003 1163.37 77.0825C1160.31 74.4379 1154.99 72.9263 1147.03 72.9263H1105.26V109.938H1070.49V3.57861H1155.98ZM1105.26 47.8706H1154.01C1158.43 47.8706 1161.49 46.8375 1163.37 45.229C1165.24 43.6264 1166.21 41.3429 1166.21 38.5562V38.4038C1166.21 35.6343 1165.25 33.495 1163.37 31.8823C1161.49 30.2739 1158.43 29.2417 1154.01 29.2417H1105.26V47.8706Z" stroke="url(#paint0_linear_333_299)" stroke-width="2"/>
<path d="M983.005 1L984.683 1.00684C993.027 1.07831 1000.71 1.68593 1007.74 2.83301L1007.76 2.83691C1015.06 4.20518 1021.37 5.73806 1026.47 7.90527H1026.47C1031.1 9.7857 1035.32 12.2066 1039 14.916L1039.73 15.4619L1039.75 15.4756L1039.77 15.4902C1043.44 18.5528 1046.4 21.4992 1048.59 24.6338C1050.77 27.7377 1052.47 30.9946 1053.86 34.5508L1053.87 34.5693L1053.88 34.5869C1055.09 38.074 1056.03 41.3294 1056.35 44.1641L1056.51 45.2695C1056.85 47.8498 1056.97 50.4341 1056.97 53.1172V57.3652C1056.97 60.2678 1056.81 63.198 1056.35 65.9922C1056.03 68.9836 1055.09 72.2473 1053.88 75.7441L1053.87 75.7549L1053.87 75.7666C1052.47 79.4814 1050.77 82.7311 1048.76 85.8193L1048.76 85.834L1048.75 85.8486C1046.56 88.9738 1043.61 92.0745 1039.75 95.1562C1035.88 98.2575 1031.55 100.729 1026.47 102.881L1026.47 102.88C1021.52 105.045 1015.22 106.73 1007.76 108.101L1007.74 108.104C1000.24 109.328 991.999 109.937 983.005 109.938H728.934C719.789 109.938 711.543 109.328 704.048 108.104L704.029 108.101C696.559 106.729 690.261 105.044 685.162 102.881L685.151 102.876C680.247 100.731 675.764 98.2619 671.882 95.1562L671.867 95.1445C668.192 92.0823 665.085 88.9836 662.89 85.8486L662.871 85.8193C660.863 82.7311 659.16 79.4813 657.767 75.7666L657.763 75.7549L657.759 75.7441C656.526 72.1984 655.753 68.9544 655.289 66.0146L655.283 65.9697C654.975 63.2002 654.822 60.2812 654.822 57.3652V53.1172C654.822 50.0506 654.975 47.1317 655.283 44.3613L655.286 44.334L655.291 44.3076C655.754 41.5244 656.526 38.2831 657.759 34.7383L657.763 34.7275L657.767 34.7158C659.16 31.0011 660.863 27.7514 662.871 24.6631L662.89 24.6338C665.086 21.4965 668.045 18.5472 671.882 15.4775L671.886 15.4746C675.605 12.5304 680.09 9.90271 685.185 7.89551C690.29 5.73317 696.589 4.20337 704.029 2.83691L704.048 2.83301C711.543 1.60937 719.789 1 728.934 1H983.005ZM981.792 28.0283H731.816C717.859 28.0283 707.584 30.2596 700.827 34.6182C694.146 38.9271 690.799 45.3807 690.799 54.1797V55.8477C690.799 59.0541 691.38 61.9623 692.547 64.8809L692.553 64.8936L692.557 64.9062C693.498 67.4596 695.214 70.1864 697.744 72.958L698.26 73.5127L698.261 73.5137C700.667 76.0526 704.522 78.2835 709.662 79.9033L710.707 80.2188L710.714 80.2207L710.722 80.2236C716.516 82.0064 723.541 82.9092 731.816 82.9092H981.792C989.143 82.7577 995.565 81.8571 1000.77 80.373C1006.46 78.5751 1010.68 76.3635 1013.39 73.6465C1016.19 70.8512 1018.09 67.9247 1019.25 65.168C1020.4 62.287 1020.84 59.2398 1020.84 56V54.1797C1020.84 51.5256 1020.54 49.1861 1019.96 47.0049C1019.4 44.9025 1018.12 42.5925 1016.32 40.0488C1014.59 37.7482 1012.27 35.7132 1009.34 33.9531H1009.34C1006.57 32.3543 1002.58 30.8685 997.49 29.6699V29.6689C993.043 28.6316 987.821 28.179 981.792 28.0273V28.0283Z" stroke="url(#paint1_linear_333_299)" stroke-width="2"/>
<path d="M571.478 1.91016V81.6963H652.022V110.089H533.377V1.91016H571.478Z" stroke="url(#paint2_linear_333_299)" stroke-width="2"/>
<path d="M468.123 1.91016C486.172 1.91017 499.862 4.79827 509.068 10.7148C518.35 16.6804 522.971 25.6596 522.971 37.4941V38.8594C522.971 50.7665 518.353 59.8209 509.072 65.8447C499.866 71.8202 486.174 74.7471 468.123 74.7471H418.46V110.089H380.359V1.91016H468.123ZM418.46 48.9326H467.516C472.969 48.9326 476.905 47.9928 479.452 46.2773C481.931 44.6076 483.201 42.1318 483.201 38.708V38.2529C483.201 34.829 481.931 32.3524 479.452 30.6826C476.905 28.9673 472.969 28.0284 467.516 28.0283H418.46V48.9326Z" stroke="url(#paint3_linear_333_299)" stroke-width="2"/>
<path d="M262.858 1.91016L263.147 2.18652L294.766 32.3203L326.385 2.18652L326.675 1.91016H373.449L371.594 3.6416L317.608 54.0371L372.818 107.003L374.612 108.724H326.834L326.546 108.456L292.19 76.4805L258.136 108.453L257.848 108.724H210.926L212.781 106.993L268.727 54.7852L213.994 3.64062L212.142 1.91016H262.858Z" stroke="url(#paint4_linear_333_299)" stroke-width="2"/>
<path d="M205.298 2.06177V109.938H167.198V2.06177H205.298Z" stroke="url(#paint5_linear_333_299)" stroke-width="2"/>
<path d="M39.1006 1.15161V51.2971C39.1006 54.7505 39.6184 57.939 40.5303 60.8655L40.7178 61.4475L40.7227 61.4602C41.7389 64.6543 43.4889 67.7316 46.0068 70.842C48.2731 73.6416 51.7117 75.8758 56.5439 77.6145L57.5293 77.9553L57.5371 77.9583C62.7273 79.7378 68.9869 80.7864 76.3252 80.7864C83.5078 80.7864 89.6161 79.7388 94.8096 77.9583C99.8624 76.1738 103.617 73.8315 106.037 70.842L106.055 70.8206C108.711 67.7213 110.458 64.6513 111.474 61.4602L111.478 61.4475L111.665 60.8655C112.577 57.939 113.095 54.7505 113.095 51.2971V1.15161H151.195V53.2688C151.195 57.7579 150.577 62.3861 149.501 66.9963L149.499 67.0042C148.408 71.5238 146.237 76.627 143.007 81.8567C139.756 87.2723 135.579 91.9089 130.489 95.9192C125.357 99.9631 118.406 103.35 109.679 105.952L109.678 105.951C100.76 108.717 90.6473 109.938 79.3594 109.938H73.7471C65.2103 109.938 57.2564 109.327 50.1992 107.947V107.948C43.0126 106.571 37.0129 104.73 32.0645 102.41C27.1454 100.105 22.6621 97.3265 18.9365 94.0667V94.0657C15.0832 90.8263 12.1444 87.4266 9.97168 84.1692L9.54199 83.5266C7.42903 80.3045 5.84452 76.9504 4.4082 73.3596L4.40234 73.343L4.39648 73.3274C3.01427 69.4879 2.08497 65.9343 1.61816 62.8225L1.61719 62.8147C1.15372 59.5703 1 56.487 1 53.2688V1.15161H39.1006Z" stroke="url(#paint6_linear_333_299)" stroke-width="2"/>
<defs>
<linearGradient id="paint0_linear_333_299" x1="1133.35" y1="-80.6905" x2="1133.35" y2="147.831" gradientUnits="userSpaceOnUse">
<stop stop-color="#B8FB3C" stop-opacity="0.5"/>
<stop offset="1" stop-opacity="0"/>
</linearGradient>
<linearGradient id="paint1_linear_333_299" x1="845.566" y1="-85.376" x2="845.566" y2="148.792" gradientUnits="userSpaceOnUse">
<stop stop-color="#B8FB3C" stop-opacity="0.5"/>
<stop offset="1" stop-opacity="0"/>
</linearGradient>
<linearGradient id="paint2_linear_333_299" x1="589.689" y1="-83.8462" x2="589.689" y2="148.661" gradientUnits="userSpaceOnUse">
<stop stop-color="#B8FB3C" stop-opacity="0.5"/>
<stop offset="1" stop-opacity="0"/>
</linearGradient>
<linearGradient id="paint3_linear_333_299" x1="448.036" y1="-83.8462" x2="448.036" y2="148.661" gradientUnits="userSpaceOnUse">
<stop stop-color="#B8FB3C" stop-opacity="0.5"/>
<stop offset="1" stop-opacity="0"/>
</linearGradient>
<linearGradient id="paint4_linear_333_299" x1="288.699" y1="-82.7307" x2="288.699" y2="146.787" gradientUnits="userSpaceOnUse">
<stop stop-color="#B8FB3C" stop-opacity="0.5"/>
<stop offset="1" stop-opacity="0"/>
</linearGradient>
<linearGradient id="paint5_linear_333_299" x1="185.316" y1="-83.4467" x2="185.316" y2="148.396" gradientUnits="userSpaceOnUse">
<stop stop-color="#B8FB3C" stop-opacity="0.5"/>
<stop offset="1" stop-opacity="0"/>
</linearGradient>
<linearGradient id="paint6_linear_333_299" x1="72.2728" y1="-85.1005" x2="72.2728" y2="148.735" gradientUnits="userSpaceOnUse">
<stop stop-color="#B8FB3C" stop-opacity="0.5"/>
<stop offset="1" stop-opacity="0"/>
</linearGradient>
</defs>
</svg>
