<svg width="1440" height="110" viewBox="0 0 1440 110" fill="none" xmlns="http://www.w3.org/2000/svg">
<path d="M1407.25 -22.8024C1426.13 -22.8024 1440.45 -19.9762 1450.09 -14.2194C1459.81 -8.41427 1464.68 0.334256 1464.68 11.8685V13.9379C1464.68 21.0156 1462.59 27.0361 1458.4 31.9613C1454.73 36.2808 1449.48 39.7024 1442.75 42.2816C1448.95 44.4279 1454.16 47.6409 1458.21 52.1966C1462.93 57.3057 1465.25 63.96 1465.25 72.0619V108.614H1422.43V84.4769C1422.43 76.73 1420.4 71.2378 1416.57 67.9281C1412.71 64.5915 1406.05 62.7162 1396.16 62.7162H1344.11V108.614H1301.48V-22.8024H1407.25ZM1344.11 32.1244H1404.81C1410.32 32.1244 1414.19 30.8369 1416.57 28.7914C1418.95 26.7517 1420.17 23.8486 1420.17 20.3334V20.1449C1420.17 16.647 1418.96 13.9251 1416.57 11.8754C1414.19 9.82979 1410.32 8.54235 1404.81 8.54235H1344.11V32.1244Z" stroke="white" stroke-opacity="0.1" stroke-width="2"/>
<path d="M1192.74 -26C1203.19 -26 1212.82 -25.3362 1221.63 -24.0049L1223.38 -23.7295L1223.39 -23.7275L1223.4 -23.7256C1232.44 -22.0309 1240.23 -20.1357 1246.54 -17.4619C1252.26 -15.1368 1257.48 -12.1411 1262.04 -8.78906L1262.95 -8.11426L1262.96 -8.10059L1262.98 -8.08594C1267.53 -4.29489 1271.18 -0.656087 1273.88 3.20703C1276.4 6.79984 1278.41 10.5586 1280.06 14.6348L1280.39 15.4541L1280.4 15.4727L1280.4 15.4902C1281.91 19.8317 1283.07 23.8664 1283.46 27.3662C1284.03 30.9944 1284.22 34.611 1284.22 38.3916V43.6582C1284.22 47.2529 1284.03 50.8753 1283.46 54.3252C1283.07 58.0086 1281.91 62.0367 1280.4 66.3711L1280.4 66.3828L1280.4 66.3936C1278.67 70.9825 1276.57 74.9977 1274.09 78.8145L1274.08 78.8291L1274.07 78.8428C1271.37 82.6965 1267.73 86.5266 1262.97 90.3369C1258.18 94.1665 1252.83 97.22 1246.55 99.8818L1246.55 99.8809C1240.44 102.556 1232.64 104.642 1223.4 106.34L1223.38 106.344C1214.1 107.859 1203.88 108.614 1192.74 108.614H877.667C866.337 108.614 856.124 107.859 846.845 106.344L846.825 106.34C837.571 104.64 829.779 102.555 823.478 99.8818L823.468 99.877C817.398 97.2216 811.859 94.171 807.066 90.3369L807.059 90.3311L807.052 90.3242C802.503 86.5335 798.666 82.7062 795.962 78.8428L795.952 78.8291L795.943 78.8145C793.462 74.9976 791.359 70.9826 789.638 66.3936L789.634 66.3828L789.63 66.3711C788.105 61.9879 787.15 57.9803 786.576 54.3486L786.573 54.3252L786.57 54.3027C786.19 50.8775 786 47.2663 786 43.6582V38.3916C786 34.5964 786.19 30.9847 786.57 27.5586L786.573 27.5322L786.578 27.5049C787.151 24.0661 788.106 20.0611 789.63 15.6787L789.634 15.667L789.638 15.6562C791.359 11.0672 793.462 7.05219 795.943 3.23535L795.952 3.2207L795.962 3.20703C798.668 -0.658694 802.319 -4.30056 807.066 -8.09863L807.07 -8.10254C811.661 -11.7369 817.199 -14.9817 823.492 -17.4619C829.801 -20.1362 837.596 -22.0315 846.825 -23.7266L846.835 -23.7285L846.845 -23.7295C856.124 -25.2445 866.337 -26 877.667 -26H1192.74ZM881.24 7.03711C863.914 7.03715 851.118 9.80605 842.681 15.248C834.32 20.6405 830.136 28.7239 830.136 39.708V41.7773C830.136 45.5347 830.775 48.9654 832.057 52.3848L832.321 53.0684L832.331 53.0938C833.511 56.2958 835.657 59.7039 838.81 63.1582L839.454 63.8496L839.455 63.8506C842.576 67.1443 847.62 70.0057 854.34 72.0361L854.996 72.2305L855.004 72.2324L855.012 72.2354C862.226 74.4551 870.962 75.5771 881.24 75.5771H1191.22C1199.8 75.402 1207.37 74.4059 1213.62 72.7559L1214.85 72.417C1221.92 70.1828 1227.19 67.4251 1230.6 64.0186C1234.08 60.5313 1236.45 56.8765 1237.91 53.4277C1239.35 49.8184 1239.9 46.0068 1239.9 41.9658V39.708C1239.9 36.3984 1239.53 33.4765 1238.8 30.749C1238.1 28.0988 1236.48 25.2041 1234.25 22.0391V22.0381C1232.08 19.1573 1229.18 16.6146 1225.52 14.4189H1225.52C1222.06 12.4195 1217.09 10.57 1210.76 9.08008V9.0791C1205.56 7.86625 1199.52 7.29705 1192.61 7.07617L1191.21 7.03711H881.24Z" stroke="white" stroke-opacity="0.1" stroke-width="2"/>
<path d="M682.164 -24.8713V74.072H782.048V108.803H635.396V-24.8713H682.164Z" stroke="white" stroke-opacity="0.1" stroke-width="2"/>
<path d="M554.233 -24.8713C576.598 -24.8713 593.521 -21.2911 604.88 -13.9905C616.316 -6.64099 622.01 4.41395 622.01 19.0164V20.7097C622.01 35.403 616.319 46.552 604.884 53.9734C593.524 61.3464 576.6 64.9734 554.233 64.9734H492.406V108.803H445.637V-24.8713H554.233ZM492.406 33.4412H553.481C560.263 33.4412 565.201 32.2744 568.417 30.1082C571.566 27.9877 573.172 24.8374 573.172 20.5213V19.9568C573.172 15.6408 571.566 12.4903 568.417 10.3699C565.201 8.20377 560.263 7.03788 553.481 7.03787H492.406V33.4412Z" stroke="white" stroke-opacity="0.1" stroke-width="2"/>
<path d="M299.587 -24.8713L299.877 -24.5949L339.253 12.9324L378.63 -24.5949L378.919 -24.8713H436.219L434.364 -23.1399L367.229 39.5291L435.879 105.387L437.674 107.109H379.114L378.826 106.842L336.057 67.034L293.664 106.839L293.375 107.109H235.891L237.746 105.378L307.314 40.4588L239.251 -23.1408L237.398 -24.8713H299.587Z" stroke="white" stroke-opacity="0.1" stroke-width="2"/>
<path d="M228.062 -24.6834V108.614H181.294V-24.6834H228.062Z" stroke="white" stroke-opacity="0.1" stroke-width="2"/>
<path d="M21.9595 -25.8121V36.1342C21.9595 40.4411 22.6058 44.4188 23.7437 48.0708L23.978 48.7973L23.9819 48.81L24.231 49.5571C25.5303 53.2856 27.6365 56.8897 30.5776 60.5229C33.6142 64.2739 38.3123 67.1987 44.9771 69.4204L44.9858 69.4233C51.4507 71.6398 59.24 72.9428 68.3628 72.9428C77.2935 72.9428 84.8947 71.6409 91.3628 69.4233C97.6538 67.2019 102.355 64.2771 105.394 60.5229L105.403 60.5122L105.413 60.5014C108.725 56.6373 110.908 52.8024 112.178 48.81L112.182 48.7973H112.183C113.466 44.9482 114.201 40.7283 114.201 36.1342V-25.8121H160.969V38.5795C160.969 44.1248 160.205 49.8455 158.875 55.5483L158.873 55.5551C157.527 61.1311 154.846 67.4366 150.851 73.9047C146.835 80.5953 141.674 86.3244 135.382 91.2817C129.05 96.271 120.463 100.456 109.665 103.677L109.666 103.678C98.6328 107.102 86.1123 108.614 72.1245 108.614H65.1646C54.5883 108.614 44.7408 107.858 36.0083 106.15C27.1099 104.446 19.6896 102.168 13.5757 99.3022C7.49769 96.4531 1.96438 93.0234 -2.63232 89.0043C-7.40368 84.9964 -11.0395 80.7906 -13.7251 76.7641L-14.2554 75.9702C-16.8638 71.9926 -18.8214 67.849 -20.5991 63.4047L-20.606 63.3881L-20.6118 63.3715C-22.3219 58.6214 -23.4694 54.2304 -24.0454 50.3901L-24.0464 50.3833C-24.6191 46.3739 -24.8091 42.5626 -24.8091 38.5795V-25.8121H21.9595Z" stroke="white" stroke-opacity="0.1" stroke-width="2"/>
</svg>
